{"title":"IMPACT.WRESTLING.2015.08.05.HDTV.XviD-FICEK9","uid":12209716,"size":782972519,"categoryP":"video","categoryS":"tv_shows","magnet":"?xt=urn:btih:30f018bbff21f23ccdd3900746ee9fe742c0601e&amp;dn=IMPACT.WRESTLING.2015.08.05.HDTV.XviD-FICEK9&amp;tr=udp%3A%2F%2Ftracker.openbittorrent.com%3A80&amp;tr=udp%3A%2F%2Fopen.demonii.com%3A1337&amp;tr=udp%3A%2F%2Ftracker.coppersurfer.tk%3A6969&amp;tr=udp%3A%2F%2Fexodus.desync.com%3A6969","seeders":1,"leechers":1,"uploader":"FICEK9","files":2,"time":1439060315,"description":"\t\t\t\tR.I.P. HOT ROD\n\n\n   General\n      Complete name : IMPACT.WRESTLING.2015.08.05.HDTV.XviD-FICEK9.avi\n      Format : AVI\n      Format/Info : Audio Video Interleave\n      File size : 747 MiB\n      Duration : 1h 28mn\n      Overall bit rate mode : Variable\n      Overall bit rate : 1 186 Kbps\n      Writing application : MEncoder SVN-r33883(20110719-gcc4.5.2)\n      Writing library : MPlayer\n   Video #0\n      ID : 0\n      Format : MPEG-4 Visual\n      Format profile : Advanced Simple@L5\n      Format settings, BVOP : 2\n      Format settings, QPel : No\n      Format settings, GMC : No warppoints\n      Format settings, Matrix : Default (H.263)\n      Codec ID : XVID\n      Codec ID/Hint : XviD\n      Duration : 1h 28mn\n      Bit rate : 1 049 Kbps\n      Width : 1 280 pixels\n      Height : 720 pixels\n      Display aspect ratio : 16:9\n      Frame rate : 29.970 fps\n      Color space : YUV\n      Chroma subsampling : 4:2:0\n      Bit depth : 8 bits\n      Scan type : Progressive\n      Compression mode : Lossy\n      Bits/(Pixel*Frame) : 0.038\n      Stream size : 661 MiB (88%)\n      Writing library : XviD 1.2.1 (UTC 2008-12-04)\n   Audio #1\n      ID : 1\n      Format : MPEG Audio\n      Format version : Version 1\n      Format profile : Layer 3\n      Mode : Joint stereo\n      Codec ID : 55\n      Codec ID/Hint : MP3\n      Duration : 1h 28mn\n      Bit rate mode : Variable\n      Bit rate : 123 Kbps\n      Channel(s) : 2 channels\n      Sampling rate : 48.0 KHz\n      Compression mode : Lossy\n      Stream size : 77.3 MiB (10%)\n      Alignment : Aligned on interleaves\n      Interleave, duration : 24 ms (0.72 video frame)\n      Interleave, preload duration : 578 ms","torrent":{"xt":"urn:btih:30f018bbff21f23ccdd3900746ee9fe742c0601e","amp;dn":"IMPACT.WRESTLING.2015.08.05.HDTV.XviD-FICEK9","amp;tr":["udp%3A%2F%2Ftracker.openbittorrent.com%3A80","udp%3A%2F%2Fopen.demonii.com%3A1337","udp%3A%2F%2Ftracker.coppersurfer.tk%3A6969","udp%3A%2F%2Fexodus.desync.com%3A6969"],"infoHash":"30f018bbff21f23ccdd3900746ee9fe742c0601e","infoHashBuffer":{"type":"Buffer","data":[48,240,24,187,255,33,242,60,205,211,144,7,70,238,159,231,66,192,96,30]},"announce":[],"urlList":[]}}